<?xml version="1.0" encoding="UTF-8" standalone="no"?>
<svg
   xmlns:dc="http://purl.org/dc/elements/1.1/"
   xmlns:cc="http://creativecommons.org/ns#"
   xmlns:rdf="http://www.w3.org/1999/02/22-rdf-syntax-ns#"
   xmlns:svg="http://www.w3.org/2000/svg"
   xmlns="http://www.w3.org/2000/svg"
   xmlns:sodipodi="http://sodipodi.sourceforge.net/DTD/sodipodi-0.dtd"
   xmlns:inkscape="http://www.inkscape.org/namespaces/inkscape"
   width="296"
   height="232"
   viewBox="0 0 78.316665 61.383335"
   version="1.1"
   id="svg8"
   sodipodi:docname="form IG - 296x232 - Shared.svg"
   inkscape:version="1.0.1 (3bc2e813f5, 2020-09-07)"
   inkscape:export-filename="D:\sakshi graphics\Phone\IG form v8.png"
   inkscape:export-xdpi="96"
   inkscape:export-ydpi="96">
  <defs
     id="defs2">
    <clipPath
       clipPathUnits="userSpaceOnUse"
       id="clipPath1824">
      <rect
         style="opacity:1;fill:#f30000;fill-opacity:1;stroke:none;stroke-width:0.15733;stroke-linecap:round;stroke-linejoin:round;stroke-miterlimit:4;stroke-dasharray:0.15733, 0.314661;stroke-dashoffset:0;stroke-opacity:1;paint-order:stroke fill markers"
         id="rect1826"
         width="8.4808407"
         height="4.2049851"
         x="62.035347"
         y="39.498516"
         rx="4.2404203"
         ry="2.1024926" />
    </clipPath>
    <filter
       inkscape:collect="always"
       style="color-interpolation-filters:sRGB"
       id="filter9515"
       x="-0.059845362"
       width="1.1196907"
       y="-0.06015544"
       height="1.1203109">
      <feGaussianBlur
         inkscape:collect="always"
         stdDeviation="0.31998047"
         id="feGaussianBlur9517" />
    </filter>
  </defs>
  <sodipodi:namedview
     id="base"
     pagecolor="#ffffff"
     bordercolor="#666666"
     borderopacity="1.0"
     inkscape:pageopacity="0.0"
     inkscape:pageshadow="2"
     inkscape:zoom="0.125"
     inkscape:cx="34.945763"
     inkscape:cy="96.955786"
     inkscape:document-units="px"
     inkscape:current-layer="layer1"
     inkscape:document-rotation="0"
     showgrid="false"
     objecttolerance="2.6"
     guidetolerance="2.9"
     inkscape:window-width="1267"
     inkscape:window-height="729"
     inkscape:window-x="74"
     inkscape:window-y="0"
     inkscape:window-maximized="0"
     showguides="true"
     inkscape:guide-bbox="true"
     units="px" />
  <metadata
     id="metadata5">
    <rdf:RDF>
      <cc:Work
         rdf:about="">
        <dc:format>image/svg+xml</dc:format>
        <dc:type
           rdf:resource="http://purl.org/dc/dcmitype/StillImage" />
        <dc:title />
      </cc:Work>
    </rdf:RDF>
  </metadata>
  <g
     inkscape:label="Layer 1"
     inkscape:groupmode="layer"
     id="layer1">
    <rect
       style="opacity:1;fill:#ffffff;fill-opacity:1;stroke:#ffffff;stroke-width:0.211469;stroke-linecap:round;stroke-linejoin:round;stroke-miterlimit:4;stroke-dasharray:none;stroke-dashoffset:0;stroke-opacity:1;paint-order:stroke fill markers"
       id="rect2198"
       width="79.778381"
       height="93.563324"
       x="0.11093718"
       y="-16.377098"
       rx="0.099745266"
       ry="0.080171131" />
    <g
       id="g1212"
       transform="translate(-0.338376)">
      <path
         style="fill:#2666b2;fill-opacity:1;stroke:none;stroke-width:0.530352;stroke-linecap:butt;stroke-linejoin:miter;stroke-miterlimit:4;stroke-dasharray:0.530352, 0.530352;stroke-dashoffset:0;stroke-opacity:1"
         d="m 54.37383,47.321156 c 3.576764,0 6.456305,2.879548 6.456305,6.456314 0,3.576763 -2.879541,6.456305 -6.456305,6.456305 H 25.367744 c -1.870231,0 -3.548657,-0.788262 -4.725642,-2.050832 -0.738919,-0.702021 -1.071076,-1.476504 -1.414178,-2.400804 -0.204594,-0.63073 -0.316496,-1.304018 -0.316496,-2.004669 0,-3.576766 2.879553,-6.456314 6.456316,-6.456314 z"
         id="path7845"
         inkscape:connector-curvature="0"
         sodipodi:nodetypes="ssssccsss" />
      <ellipse
         ry="4.5476542"
         rx="4.5712175"
         cy="53.720627"
         cx="-25.919653"
         id="ellipse7847"
         style="fill:#e6e6e6;fill-opacity:1;stroke:none;stroke-width:0.505107;stroke-linecap:butt;stroke-linejoin:miter;stroke-miterlimit:4;stroke-dasharray:0.505107, 0.505107;stroke-dashoffset:0;stroke-opacity:1"
         transform="scale(-1,1)" />
      <ellipse
         style="fill:#ffffff;fill-opacity:1;stroke:none;stroke-width:0.497687;stroke-linecap:butt;stroke-linejoin:miter;stroke-miterlimit:4;stroke-dasharray:0.497687, 0.497687;stroke-dashoffset:0;stroke-opacity:1"
         id="ellipse7849"
         cx="-25.980001"
         cy="53.598511"
         rx="4.5039239"
         ry="4.4810081"
         transform="scale(-1,1)" />
      <ellipse
         style="fill:#e6e6e6;fill-opacity:1;stroke:none;stroke-width:0.505107;stroke-linecap:butt;stroke-linejoin:miter;stroke-miterlimit:4;stroke-dasharray:0.505107, 0.505107;stroke-dashoffset:0;stroke-opacity:1"
         id="ellipse7853"
         cx="-25.919653"
         cy="53.720627"
         rx="4.5712175"
         ry="4.5476542"
         transform="scale(-1,1)" />
      <ellipse
         style="opacity:0.388;fill:#000000;fill-opacity:1;stroke:none;stroke-width:0.708965;stroke-linecap:butt;stroke-linejoin:miter;stroke-miterlimit:4;stroke-dasharray:0.708965, 0.708965;stroke-dashoffset:0;stroke-opacity:1;filter:url(#filter9515)"
         id="ellipse7855"
         cx="274.83597"
         cy="188.19009"
         rx="6.4161458"
         ry="6.3830729"
         transform="matrix(-0.62632812,0,0,0.63203369,199.21635,-64.249315)" />
      <ellipse
         ry="4.4810081"
         rx="4.5039239"
         cy="53.598511"
         cx="-25.980001"
         id="ellipse7857"
         style="fill:#ffffff;fill-opacity:1;stroke:none;stroke-width:0.497687;stroke-linecap:butt;stroke-linejoin:miter;stroke-miterlimit:4;stroke-dasharray:0.497687, 0.497687;stroke-dashoffset:0;stroke-opacity:1"
         transform="scale(-1,1)" />
      <text
         inkscape:export-ydpi="96.298393"
         inkscape:export-xdpi="96.298393"
         transform="scale(1.0257361,0.97490962)"
         id="text7863"
         y="54.312275"
         x="32.609856"
         style="font-style:normal;font-variant:normal;font-weight:bold;font-stretch:normal;font-size:7.60306px;line-height:0%;font-family:'dax ot';-inkscape-font-specification:'dax ot Bold';text-align:start;letter-spacing:0px;word-spacing:0px;text-anchor:start;fill:#ffffff;fill-opacity:1;stroke:none;stroke-width:0.648408"
         xml:space="preserve"><tspan
           y="54.312275"
           x="32.609856"
           sodipodi:role="line"
           style="font-style:normal;font-variant:normal;font-weight:bold;font-stretch:normal;font-size:2.93364px;line-height:120%;font-family:'dax ot';-inkscape-font-specification:'dax ot Bold';text-align:start;text-anchor:start;fill:#ffffff;fill-opacity:1;stroke-width:0.648408"
           id="tspan7861">Highest</tspan><tspan
           y="57.832642"
           x="32.609856"
           sodipodi:role="line"
           style="font-style:normal;font-variant:normal;font-weight:bold;font-stretch:normal;font-size:2.93364px;line-height:120%;font-family:'dax ot';-inkscape-font-specification:'dax ot Bold';text-align:start;text-anchor:start;fill:#ffffff;fill-opacity:1;stroke-width:0.648408"
           id="tspan1139">credit ratings</tspan></text>
      <path
         sodipodi:type="star"
         style="fill:#2666b2;fill-opacity:1;stroke:#2666b2;stroke-width:0.470038;stroke-linecap:round;stroke-linejoin:round;stroke-miterlimit:4;stroke-dasharray:none;stroke-opacity:1;paint-order:stroke fill markers"
         id="path1194"
         sodipodi:sides="5"
         sodipodi:cx="65.314178"
         sodipodi:cy="66.105515"
         sodipodi:r1="1.3268456"
         sodipodi:r2="0.66342288"
         sodipodi:arg1="0.90482709"
         sodipodi:arg2="1.5331456"
         inkscape:flatsided="false"
         inkscape:rounded="0"
         inkscape:randomized="0"
         inkscape:transform-center-x="0.0011677886"
         inkscape:transform-center-y="-0.075575347"
         transform="matrix(0.55204694,0.01819486,-0.01819486,0.55204694,-10.036316,14.873887)"
         d="m 66.133932,67.148838 -0.794781,-0.380371 -0.763914,0.439084 0.116153,-0.873423 -0.653656,-0.59084 0.866568,-0.159435 0.359932,-0.804244 0.419415,0.774887 0.876107,0.09379 -0.607355,0.638341 z" />
      <path
         sodipodi:type="star"
         style="fill:#2666b2;fill-opacity:1;stroke:#2666b2;stroke-width:0.470038;stroke-linecap:round;stroke-linejoin:round;stroke-miterlimit:4;stroke-dasharray:none;stroke-opacity:1;paint-order:stroke fill markers"
         id="path1196"
         sodipodi:sides="5"
         sodipodi:cx="65.314178"
         sodipodi:cy="66.105515"
         sodipodi:r1="1.3268456"
         sodipodi:r2="0.66342288"
         sodipodi:arg1="0.90482709"
         sodipodi:arg2="1.5331456"
         inkscape:flatsided="false"
         inkscape:rounded="0"
         inkscape:randomized="0"
         inkscape:transform-center-x="0.0011693889"
         inkscape:transform-center-y="-0.075575347"
         transform="matrix(0.55204694,0.01819486,-0.01819486,0.55204694,-8.0051961,14.873887)"
         d="m 66.133932,67.148838 -0.794781,-0.380371 -0.763914,0.439084 0.116153,-0.873423 -0.653656,-0.59084 0.866568,-0.159435 0.359932,-0.804244 0.419415,0.774887 0.876107,0.09379 -0.607355,0.638341 z" />
      <path
         sodipodi:type="star"
         style="fill:#2666b2;fill-opacity:1;stroke:#2666b2;stroke-width:0.470038;stroke-linecap:round;stroke-linejoin:round;stroke-miterlimit:4;stroke-dasharray:none;stroke-opacity:1;paint-order:stroke fill markers"
         id="path1198"
         sodipodi:sides="5"
         sodipodi:cx="65.314178"
         sodipodi:cy="66.105515"
         sodipodi:r1="1.3268456"
         sodipodi:r2="0.66342288"
         sodipodi:arg1="0.90482709"
         sodipodi:arg2="1.5331456"
         inkscape:flatsided="false"
         inkscape:rounded="0"
         inkscape:randomized="0"
         inkscape:transform-center-x="0.0011695309"
         inkscape:transform-center-y="-0.075575977"
         transform="matrix(0.55204694,0.01819486,-0.01819486,0.55204694,-9.008055,16.752678)"
         d="m 66.133932,67.148838 -0.794781,-0.380371 -0.763914,0.439084 0.116153,-0.873423 -0.653656,-0.59084 0.866568,-0.159435 0.359932,-0.804244 0.419415,0.774887 0.876107,0.09379 -0.607355,0.638341 z" />
      <path
         sodipodi:type="star"
         style="fill:#2666b2;fill-opacity:1;stroke:#2666b2;stroke-width:0.470038;stroke-linecap:round;stroke-linejoin:round;stroke-miterlimit:4;stroke-dasharray:none;stroke-opacity:1;paint-order:stroke fill markers"
         id="path1200"
         sodipodi:sides="5"
         sodipodi:cx="65.314178"
         sodipodi:cy="66.105515"
         sodipodi:r1="1.3268456"
         sodipodi:r2="0.66342288"
         sodipodi:arg1="0.90482709"
         sodipodi:arg2="1.5331456"
         inkscape:flatsided="false"
         inkscape:rounded="0"
         inkscape:randomized="0"
         inkscape:transform-center-x="0.001169686"
         inkscape:transform-center-y="-0.075575977"
         transform="matrix(0.55204694,0.01819486,-0.01819486,0.55204694,-11.10265,16.752678)"
         d="m 66.133932,67.148838 -0.794781,-0.380371 -0.763914,0.439084 0.116153,-0.873423 -0.653656,-0.59084 0.866568,-0.159435 0.359932,-0.804244 0.419415,0.774887 0.876107,0.09379 -0.607355,0.638341 z" />
      <path
         sodipodi:type="star"
         style="fill:#2666b2;fill-opacity:1;stroke:#2666b2;stroke-width:0.470038;stroke-linecap:round;stroke-linejoin:round;stroke-miterlimit:4;stroke-dasharray:none;stroke-opacity:1;paint-order:stroke fill markers"
         id="path1202"
         sodipodi:sides="5"
         sodipodi:cx="65.314178"
         sodipodi:cy="66.105515"
         sodipodi:r1="1.3268456"
         sodipodi:r2="0.66342288"
         sodipodi:arg1="0.90482709"
         sodipodi:arg2="1.5331456"
         inkscape:flatsided="false"
         inkscape:rounded="0"
         inkscape:randomized="0"
         inkscape:transform-center-x="0.001167738"
         inkscape:transform-center-y="-0.075575977"
         transform="matrix(0.55204694,0.01819486,-0.01819486,0.55204694,-6.9134685,16.752678)"
         d="m 66.133932,67.148838 -0.794781,-0.380371 -0.763914,0.439084 0.116153,-0.873423 -0.653656,-0.59084 0.866568,-0.159435 0.359932,-0.804244 0.419415,0.774887 0.876107,0.09379 -0.607355,0.638341 z" />
      <path
         style="fill:#2666b2;fill-opacity:1;stroke:none;stroke-width:0.530352;stroke-linecap:butt;stroke-linejoin:miter;stroke-miterlimit:4;stroke-dasharray:0.530352, 0.530352;stroke-dashoffset:0;stroke-opacity:1"
         d="m 54.37383,1.3190967 c 3.576764,0 6.456305,2.8795479 6.456305,6.4563137 0,3.5767626 -2.879541,6.4563046 -6.456305,6.4563046 H 25.367744 c -1.870231,0 -3.548657,-0.788264 -4.725642,-2.050831 C 19.903183,11.478862 19.571026,10.70438 19.227924,9.7800799 19.02333,9.1493494 18.911428,8.4760624 18.911428,7.7754104 c 0,-3.5767658 2.879553,-6.4563137 6.456316,-6.4563137 z"
         id="path5742"
         inkscape:connector-curvature="0"
         sodipodi:nodetypes="ssssccsss" />
      <ellipse
         ry="4.5476542"
         rx="4.5712175"
         cy="7.7185564"
         cx="-25.919653"
         id="ellipse7659"
         style="fill:#e6e6e6;fill-opacity:1;stroke:none;stroke-width:0.505107;stroke-linecap:butt;stroke-linejoin:miter;stroke-miterlimit:4;stroke-dasharray:0.505107, 0.505107;stroke-dashoffset:0;stroke-opacity:1"
         transform="scale(-1,1)" />
      <ellipse
         style="fill:#ffffff;fill-opacity:1;stroke:none;stroke-width:0.497687;stroke-linecap:butt;stroke-linejoin:miter;stroke-miterlimit:4;stroke-dasharray:0.497687, 0.497687;stroke-dashoffset:0;stroke-opacity:1"
         id="ellipse7661"
         cx="-25.980001"
         cy="7.5964489"
         rx="4.5039239"
         ry="4.4810081"
         transform="scale(-1,1)" />
      <path
         style="fill:#034a89;fill-opacity:1;stroke-width:0.0125463"
         d="m 27.783137,9.3884712 c 0.03466,-0.017998 0.05462,-0.037071 0.07152,-0.06795 0.01283,-0.023512 0.01428,-0.1470119 0.0163,-1.4640089 0.0033,-1.3714692 0.0013,-1.4380202 -0.01278,-1.431907 -0.06983,0.029412 -0.03209,0.029004 -1.913136,0.029351 l -1.838149,1.899e-4 V 6.9511089 7.448075 h 0.431345 c 0.409095,0 0.434261,6.242e-4 0.487534,0.017285 0.0661,0.020334 0.117187,0.057017 0.161591,0.1158186 0.05509,0.072933 0.06026,0.097276 0.06445,0.3061444 0.004,0.2067508 -0.0033,0.2748925 -0.03734,0.3423199 -0.02908,0.057343 -0.0882,0.1146218 -0.147123,0.1422714 l -0.0488,0.022858 -0.453649,0.00444 -0.453649,0.00444 -0.0033,0.4991122 -0.0033,0.4991036 1.825363,-4.36e-5 c 1.638574,-4.05e-5 1.82799,-6.238e-4 1.85102,-0.013442 z m -2.764664,-1.107819 c 0.05148,-0.02359 0.08609,-0.05665 0.110604,-0.1058339 0.02188,-0.043846 0.02207,-0.046058 0.02168,-0.2461424 -1.9e-4,-0.1417003 -0.004,-0.210977 -0.01133,-0.2325883 -0.01716,-0.048097 -0.05266,-0.088488 -0.101644,-0.1156605 l -0.045,-0.025009 -0.462204,-6.233e-4 c -0.25421,-6.242e-4 -0.478742,-1.65e-4 -0.498955,6.233e-4 -0.04317,0.00568 -0.0926,0.045487 -0.110036,0.087336 -0.01677,0.040359 -0.01671,0.522423 1.77e-4,0.5619073 0.01421,0.033449 0.05233,0.070333 0.08507,0.082689 0.01604,0.00506 0.184314,0.00873 0.500712,0.00873 0.442781,-1.565e-4 0.47907,-6.238e-4 0.510871,-0.015716 z m 2.766511,-1.9350058 c 0.02902,-0.00515 0.06822,-0.047076 0.07793,-0.082301 0.01664,-0.060443 -0.01762,-0.1269265 -0.07381,-0.1432101 -0.02064,-0.00512 -0.134802,-0.00873 -0.326714,-0.00689 l -0.29509,6.236e-4 0.19237,0.089273 c 0.105805,0.049232 0.219653,0.1020967 0.253026,0.1177907 0.05948,0.028005 0.10995,0.034594 0.172275,0.022551 z m -0.538551,-0.00688 c -0.0046,-0.00446 -2.510017,-0.7036555 -2.539001,-0.7087986 -0.01087,-6.235e-4 -0.367947,0.6780248 -0.368988,0.7027112 -2.09e-4,0.00867 0.296321,0.010636 1.456074,0.010636 0.801094,0 1.45445,-6.241e-4 1.451915,-0.00446 z M 26.991417,6.1519938 C 26.979627,6.1451038 26.648858,5.9903917 26.256322,5.8079614 L 25.54262,5.4762865 25.51983,5.5007385 c -0.01257,0.013381 -0.05896,0.061899 -0.103079,0.1078544 -0.04421,0.045805 -0.07846,0.085311 -0.07627,0.087428 0.0046,0.00445 1.612649,0.4561497 1.650981,0.4639503 l 0.02142,0.00445 z"
         id="path7663"
         inkscape:connector-curvature="0"
         sodipodi:nodetypes="ccscscccsccsccccccccccccccscscccccccsccscssscczsccscassccc" />
      <ellipse
         style="fill:#e6e6e6;fill-opacity:1;stroke:none;stroke-width:0.505107;stroke-linecap:butt;stroke-linejoin:miter;stroke-miterlimit:4;stroke-dasharray:0.505107, 0.505107;stroke-dashoffset:0;stroke-opacity:1"
         id="ellipse7677"
         cx="-25.919653"
         cy="7.7185564"
         rx="4.5712175"
         ry="4.5476542"
         transform="scale(-1,1)" />
      <ellipse
         style="opacity:0.388;fill:#000000;fill-opacity:1;stroke:none;stroke-width:0.708965;stroke-linecap:butt;stroke-linejoin:miter;stroke-miterlimit:4;stroke-dasharray:0.708965, 0.708965;stroke-dashoffset:0;stroke-opacity:1;filter:url(#filter9515)"
         id="ellipse7679"
         cx="274.83597"
         cy="188.19009"
         rx="6.4161458"
         ry="6.3830729"
         transform="matrix(-0.62632812,0,0,0.63203369,199.21635,-110.25137)" />
      <ellipse
         ry="4.4810081"
         rx="4.5039239"
         cy="7.5964489"
         cx="-25.980001"
         id="ellipse7681"
         style="fill:#ffffff;fill-opacity:1;stroke:none;stroke-width:0.497687;stroke-linecap:butt;stroke-linejoin:miter;stroke-miterlimit:4;stroke-dasharray:0.497687, 0.497687;stroke-dashoffset:0;stroke-opacity:1"
         transform="scale(-1,1)" />
      <text
         inkscape:export-ydpi="96.298393"
         inkscape:export-xdpi="96.298393"
         transform="scale(1.0257361,0.97490962)"
         id="text7713"
         y="7.1262975"
         x="32.700794"
         style="font-style:normal;font-variant:normal;font-weight:bold;font-stretch:normal;font-size:7.60306px;line-height:0%;font-family:'dax ot';-inkscape-font-specification:'dax ot Bold';text-align:start;letter-spacing:0px;word-spacing:0px;text-anchor:start;fill:#ffffff;fill-opacity:1;stroke:none;stroke-width:0.648408"
         xml:space="preserve"><tspan
           y="7.1262975"
           x="32.700794"
           sodipodi:role="line"
           style="font-style:normal;font-variant:normal;font-weight:bold;font-stretch:normal;font-size:2.93364px;line-height:120%;font-family:'dax ot';-inkscape-font-specification:'dax ot Bold';text-align:start;text-anchor:start;fill:#ffffff;fill-opacity:1;stroke-width:0.648408"
           id="tspan7711">Attractive rates</tspan><tspan
           y="10.646666"
           x="32.700794"
           sodipodi:role="line"
           style="font-style:normal;font-variant:normal;font-weight:bold;font-stretch:normal;font-size:2.93364px;line-height:120%;font-family:'dax ot';-inkscape-font-specification:'dax ot Bold';text-align:start;text-anchor:start;fill:#ffffff;fill-opacity:1;stroke-width:0.648408"
           id="tspan1127">up to 7.05%</tspan></text>
      <g
         id="g1261"
         transform="matrix(0.65501287,0,0,0.65501287,10.840675,-2.9987351)">
        <path
           style="opacity:1;fill:#2666b2;fill-opacity:1;stroke:none;stroke-width:0.809681;stroke-linecap:butt;stroke-linejoin:miter;stroke-miterlimit:4;stroke-dasharray:0.809681, 0.809681;stroke-dashoffset:0;stroke-opacity:1"
           d="m 66.461527,30.002238 c 5.4606,0 9.85676,4.39617 9.85676,9.856773 0,5.4606 -4.39616,9.856761 -9.85676,9.856761 h -44.28323 c -2.85526,0 -5.41769,-1.203434 -7.21458,-3.130979 -1.128097,-1.071766 -1.635197,-2.25416 -2.159007,-3.665278 -0.31235,-0.962927 -0.48319,-1.990826 -0.48319,-3.060504 0,-5.460603 4.396177,-9.856773 9.856777,-9.856773 z"
           id="path7793"
           inkscape:connector-curvature="0"
           sodipodi:nodetypes="ssssccsss" />
        <ellipse
           ry="6.9428473"
           rx="6.9788208"
           cy="39.772205"
           cx="-23.020887"
           id="ellipse7795"
           style="opacity:1;fill:#e6e6e6;fill-opacity:1;stroke:none;stroke-width:0.771141;stroke-linecap:butt;stroke-linejoin:miter;stroke-miterlimit:4;stroke-dasharray:0.771141, 0.771141;stroke-dashoffset:0;stroke-opacity:1"
           transform="scale(-1,1)" />
        <ellipse
           style="opacity:1;fill:#ffffff;fill-opacity:1;stroke:none;stroke-width:0.759813;stroke-linecap:butt;stroke-linejoin:miter;stroke-miterlimit:4;stroke-dasharray:0.759813, 0.759813;stroke-dashoffset:0;stroke-opacity:1"
           id="ellipse7797"
           cx="-23.11302"
           cy="39.585789"
           rx="6.8760848"
           ry="6.8410993"
           transform="scale(-1,1)" />
        <path
           style="fill:#00aab4;fill-opacity:1;stroke-width:0.0191542"
           d="m 25.865847,42.321652 c 0.0529,-0.02747 0.0834,-0.05659 0.10919,-0.103731 0.0196,-0.0359 0.0218,-0.224442 0.0249,-2.235084 0.005,-2.093805 0.002,-2.195407 -0.0195,-2.186074 -0.1066,0.0449 -0.049,0.04428 -2.92076,0.04481 l -2.80628,2.52e-4 v 0.758703 0.758712 h 0.65853 c 0.62456,0 0.66298,10e-4 0.74431,0.02638 0.10092,0.03104 0.17891,0.08705 0.2467,0.176821 0.0841,0.111344 0.092,0.148508 0.0984,0.467387 0.006,0.315644 -0.005,0.419675 -0.057,0.522614 -0.0444,0.08754 -0.13466,0.174993 -0.22461,0.217204 l -0.0745,0.0349 -0.69258,0.0068 -0.69258,0.0068 -0.005,0.761989 -0.005,0.761974 2.78676,-6.6e-5 c 2.50159,-6.2e-5 2.79077,-10e-4 2.82593,-0.02052 z m -4.22078,-1.691295 c 0.0786,-0.036 0.13143,-0.08648 0.16886,-0.161573 0.0334,-0.06694 0.0337,-0.07032 0.0331,-0.375784 -2.9e-4,-0.216332 -0.006,-0.322096 -0.0173,-0.355089 -0.0262,-0.07342 -0.0804,-0.135095 -0.15518,-0.176578 l -0.0687,-0.03819 -0.70564,-9.99e-4 c -0.3881,-10e-4 -0.73089,-2.52e-4 -0.76175,9.99e-4 -0.0659,0.0087 -0.14138,0.06945 -0.16799,0.133333 -0.0256,0.06162 -0.0255,0.797577 2.7e-4,0.857859 0.0217,0.05107 0.0799,0.107369 0.12988,0.126239 0.0245,0.0078 0.28139,0.01333 0.76443,0.01333 0.67599,-2.52e-4 0.73139,-10e-4 0.77994,-0.024 z m 4.2236,-2.954147 c 0.0443,-0.0078 0.10415,-0.07187 0.11898,-0.12565 0.0254,-0.09228 -0.0269,-0.193776 -0.11268,-0.218636 -0.0315,-0.0078 -0.2058,-0.01333 -0.49879,-0.01052 l -0.45051,10e-4 0.29369,0.13629 c 0.16153,0.07516 0.33534,0.15587 0.38629,0.17983 0.0908,0.04276 0.16786,0.05281 0.26301,0.03443 z m -0.8222,-0.01052 c -0.007,-0.0068 -3.83201,-1.074262 -3.87626,-1.082115 -0.0166,-0.001 -0.56174,1.035132 -0.56333,1.07282 -3.2e-4,0.01324 0.45239,0.01624 2.22297,0.01624 1.22302,0 2.22049,-10e-4 2.21662,-0.0068 z m -0.38933,-0.285128 c -0.018,-0.01052 -0.52298,-0.246715 -1.12226,-0.52523 l -1.0896,-0.506364 -0.0348,0.03733 c -0.0192,0.02043 -0.09,0.0945 -0.15737,0.164661 -0.0675,0.06993 -0.11978,0.130242 -0.11644,0.133475 0.007,0.0068 2.46201,0.696398 2.52053,0.708308 l 0.0327,0.0068 z"
           id="path7799"
           inkscape:connector-curvature="0"
           sodipodi:nodetypes="ccscscccsccsccccccccccccccscscccccccsccscssscczsccscassccc" />
        <ellipse
           style="opacity:1;fill:#e6e6e6;fill-opacity:1;stroke:none;stroke-width:0.771141;stroke-linecap:butt;stroke-linejoin:miter;stroke-miterlimit:4;stroke-dasharray:0.771141, 0.771141;stroke-dashoffset:0;stroke-opacity:1"
           id="ellipse7801"
           cx="-23.020887"
           cy="39.772205"
           rx="6.9788208"
           ry="6.9428473"
           transform="scale(-1,1)" />
        <ellipse
           style="opacity:0.388;fill:#000000;fill-opacity:1;stroke:none;stroke-width:0.708965;stroke-linecap:butt;stroke-linejoin:miter;stroke-miterlimit:4;stroke-dasharray:0.708965, 0.708965;stroke-dashoffset:0;stroke-opacity:1;filter:url(#filter9515)"
           id="ellipse7803"
           cx="274.83597"
           cy="188.19009"
           rx="6.4161458"
           ry="6.3830729"
           transform="matrix(-0.95620735,0,0,0.96491797,287.59079,-140.33102)" />
        <ellipse
           ry="6.8410993"
           rx="6.8760848"
           cy="39.585789"
           cx="-23.11302"
           id="ellipse7805"
           style="opacity:1;fill:#ffffff;fill-opacity:1;stroke:none;stroke-width:0.759813;stroke-linecap:butt;stroke-linejoin:miter;stroke-miterlimit:4;stroke-dasharray:0.759813, 0.759813;stroke-dashoffset:0;stroke-opacity:1"
           transform="scale(-1,1)" />
        <text
           inkscape:export-ydpi="96.298393"
           inkscape:export-xdpi="96.298393"
           transform="scale(1.0257361,0.97490962)"
           id="text7811"
           y="39.588333"
           x="33.649994"
           style="font-style:normal;font-variant:normal;font-weight:bold;font-stretch:normal;font-size:11.6075px;line-height:0%;font-family:'dax ot';-inkscape-font-specification:'dax ot Bold';text-align:start;letter-spacing:0px;word-spacing:0px;text-anchor:start;fill:#ffffff;fill-opacity:1;stroke:none;stroke-width:0.989916"
           xml:space="preserve"><tspan
             y="39.588333"
             x="33.649994"
             sodipodi:role="line"
             style="font-style:normal;font-variant:normal;font-weight:bold;font-stretch:normal;font-size:4.47875px;line-height:120%;font-family:'dax ot';-inkscape-font-specification:'dax ot Bold';text-align:start;text-anchor:start;fill:#ffffff;fill-opacity:1;stroke-width:0.989916"
             id="tspan7809">Customer base</tspan><tspan
             y="44.962833"
             x="33.649994"
             sodipodi:role="line"
             style="font-style:normal;font-variant:normal;font-weight:bold;font-stretch:normal;font-size:4.47875px;line-height:120%;font-family:'dax ot';-inkscape-font-specification:'dax ot Bold';text-align:start;text-anchor:start;fill:#ffffff;fill-opacity:1;stroke-width:0.989916"
             id="tspan1131">of 5.28* crore</tspan></text>
        <g
           id="g1176"
           transform="translate(-52.636114,2.0579753)">
          <g
             id="g1158"
             transform="matrix(0.88552618,0,0,0.88552618,19.444711,0.42793892)"
             style="fill:#2666b2;fill-opacity:1">
            <circle
               style="opacity:1;fill:#2666b2;fill-opacity:1;stroke:none;stroke-width:0.07;stroke-linecap:round;stroke-linejoin:round;stroke-miterlimit:4;stroke-dasharray:0.07, 0.14;stroke-dashoffset:0;stroke-opacity:1;paint-order:stroke fill markers"
               id="circle1154"
               cx="66.134026"
               cy="40.992462"
               r="0.83521724" />
            <rect
               style="opacity:1;fill:#2666b2;fill-opacity:1;stroke:none;stroke-width:0.089375;stroke-linecap:round;stroke-linejoin:round;stroke-miterlimit:4;stroke-dasharray:0.089375, 0.17875;stroke-dashoffset:0;stroke-opacity:1;paint-order:stroke fill markers"
               id="rect1156"
               width="3.3781621"
               height="3.3781621"
               x="64.586685"
               y="41.931732"
               rx="2.6971009"
               ry="2.6880505"
               clip-path="url(#clipPath1824)"
               transform="translate(-0.14174108)" />
          </g>
          <path
             style="fill:none;stroke:#ffffff;stroke-width:0.31051px;stroke-linecap:butt;stroke-linejoin:miter;stroke-opacity:1"
             d="m 76.401491,37.543981 c 1.077687,0.461465 1.319611,1.29946 1.330764,1.899104"
             id="path1160"
             sodipodi:nodetypes="cc" />
          <g
             id="g1166"
             transform="matrix(0.88552618,0,0,0.88552618,14.676158,0.42793892)"
             style="fill:#2666b2;fill-opacity:1">
            <circle
               style="opacity:1;fill:#2666b2;fill-opacity:1;stroke:none;stroke-width:0.07;stroke-linecap:round;stroke-linejoin:round;stroke-miterlimit:4;stroke-dasharray:0.07, 0.14;stroke-dashoffset:0;stroke-opacity:1;paint-order:stroke fill markers"
               id="circle1162"
               cx="66.134026"
               cy="40.992462"
               r="0.83521724" />
            <rect
               style="opacity:1;fill:#2666b2;fill-opacity:1;stroke:none;stroke-width:0.089375;stroke-linecap:round;stroke-linejoin:round;stroke-miterlimit:4;stroke-dasharray:0.089375, 0.17875;stroke-dashoffset:0;stroke-opacity:1;paint-order:stroke fill markers"
               id="rect1164"
               width="3.3781621"
               height="3.3781621"
               x="64.586685"
               y="41.931732"
               rx="2.6971009"
               ry="2.6880505"
               clip-path="url(#clipPath1824)"
               transform="translate(-0.14174108)" />
          </g>
          <path
             style="fill:none;stroke:#ffffff;stroke-width:0.31051px;stroke-linecap:butt;stroke-linejoin:miter;stroke-opacity:1"
             d="m 74.812634,37.543981 c -1.092897,0.471602 -1.319598,1.29946 -1.330751,1.899104"
             id="path1168"
             sodipodi:nodetypes="cc" />
          <g
             id="g1174"
             transform="matrix(1.1735823,0,0,1.1735823,-2.0023629,-11.638634)"
             style="fill:#2666b2;fill-opacity:1">
            <circle
               style="opacity:1;fill:#2666b2;fill-opacity:1;stroke:none;stroke-width:0.07;stroke-linecap:round;stroke-linejoin:round;stroke-miterlimit:4;stroke-dasharray:0.07, 0.14;stroke-dashoffset:0;stroke-opacity:1;paint-order:stroke fill markers"
               id="circle1170"
               cx="66.134026"
               cy="40.992462"
               r="0.83521724" />
            <rect
               style="opacity:1;fill:#2666b2;fill-opacity:1;stroke:none;stroke-width:0.089375;stroke-linecap:round;stroke-linejoin:round;stroke-miterlimit:4;stroke-dasharray:0.089375, 0.17875;stroke-dashoffset:0;stroke-opacity:1;paint-order:stroke fill markers"
               id="rect1172"
               width="3.3781621"
               height="3.3781621"
               x="64.586685"
               y="41.931732"
               rx="2.0350966"
               ry="2.0282674"
               clip-path="url(#clipPath1824)"
               transform="translate(-0.14174108)" />
          </g>
        </g>
      </g>
      <g
         id="g1237"
         transform="matrix(0.65501287,0,0,0.65501287,10.840675,-5.1343916)">
        <path
           style="opacity:1;fill:#2666b2;fill-opacity:1;stroke:none;stroke-width:0.809681;stroke-linecap:butt;stroke-linejoin:miter;stroke-miterlimit:4;stroke-dasharray:0.809681, 0.809681;stroke-dashoffset:0;stroke-opacity:1"
           d="m 66.461527,56.672979 c 5.4606,0 9.85676,4.39617 9.85676,9.856774 0,5.4606 -4.39616,9.85676 -9.85676,9.85676 h -44.28323 c -2.85526,0 -5.41769,-1.203434 -7.21458,-3.130978 -1.128097,-1.071767 -1.635197,-2.25416 -2.159007,-3.665279 -0.31235,-0.962927 -0.48319,-1.990826 -0.48319,-3.060503 0,-5.460604 4.396177,-9.856774 9.856777,-9.856774 z"
           id="path7819"
           inkscape:connector-curvature="0"
           sodipodi:nodetypes="ssssccsss" />
        <ellipse
           ry="6.9428473"
           rx="6.9788208"
           cy="66.442963"
           cx="-23.020887"
           id="ellipse7821"
           style="opacity:1;fill:#e6e6e6;fill-opacity:1;stroke:none;stroke-width:0.771141;stroke-linecap:butt;stroke-linejoin:miter;stroke-miterlimit:4;stroke-dasharray:0.771141, 0.771141;stroke-dashoffset:0;stroke-opacity:1"
           transform="scale(-1,1)" />
        <ellipse
           style="opacity:1;fill:#ffffff;fill-opacity:1;stroke:none;stroke-width:0.759813;stroke-linecap:butt;stroke-linejoin:miter;stroke-miterlimit:4;stroke-dasharray:0.759813, 0.759813;stroke-dashoffset:0;stroke-opacity:1"
           id="ellipse7823"
           cx="-23.11302"
           cy="66.256531"
           rx="6.8760848"
           ry="6.8410993"
           transform="scale(-1,1)" />
        <ellipse
           style="opacity:1;fill:#e6e6e6;fill-opacity:1;stroke:none;stroke-width:0.771141;stroke-linecap:butt;stroke-linejoin:miter;stroke-miterlimit:4;stroke-dasharray:0.771141, 0.771141;stroke-dashoffset:0;stroke-opacity:1"
           id="ellipse7827"
           cx="-23.020887"
           cy="66.442963"
           rx="6.9788208"
           ry="6.9428473"
           transform="scale(-1,1)" />
        <ellipse
           style="opacity:0.388;fill:#000000;fill-opacity:1;stroke:none;stroke-width:0.708965;stroke-linecap:butt;stroke-linejoin:miter;stroke-miterlimit:4;stroke-dasharray:0.708965, 0.708965;stroke-dashoffset:0;stroke-opacity:1;filter:url(#filter9515)"
           id="ellipse7829"
           cx="274.83597"
           cy="188.19009"
           rx="6.4161458"
           ry="6.3830729"
           transform="matrix(-0.95620735,0,0,0.96491797,287.59079,-113.66028)" />
        <ellipse
           ry="6.8410993"
           rx="6.8760848"
           cy="66.256531"
           cx="-23.11302"
           id="ellipse7831"
           style="opacity:1;fill:#ffffff;fill-opacity:1;stroke:none;stroke-width:0.759813;stroke-linecap:butt;stroke-linejoin:miter;stroke-miterlimit:4;stroke-dasharray:0.759813, 0.759813;stroke-dashoffset:0;stroke-opacity:1"
           transform="scale(-1,1)" />
        <text
           inkscape:export-ydpi="96.298393"
           inkscape:export-xdpi="96.298393"
           transform="scale(1.0257361,0.97490962)"
           id="text7837"
           y="66.94548"
           x="33.649994"
           style="font-style:normal;font-variant:normal;font-weight:bold;font-stretch:normal;font-size:11.6075px;line-height:0%;font-family:'dax ot';-inkscape-font-specification:'dax ot Bold';text-align:start;letter-spacing:0px;word-spacing:0px;text-anchor:start;fill:#ffffff;fill-opacity:1;stroke:none;stroke-width:0.989916"
           xml:space="preserve"><tspan
             y="66.94548"
             x="33.649994"
             sodipodi:role="line"
             style="font-style:normal;font-variant:normal;font-weight:bold;font-stretch:normal;font-size:4.47875px;line-height:120%;font-family:'dax ot';-inkscape-font-specification:'dax ot Bold';text-align:start;text-anchor:start;fill:#ffffff;fill-opacity:1;stroke-width:0.989916"
             id="tspan7835">Rs. 28,720* crore</tspan><tspan
             y="72.319984"
             x="33.649994"
             sodipodi:role="line"
             style="font-style:normal;font-variant:normal;font-weight:bold;font-stretch:normal;font-size:4.47875px;line-height:120%;font-family:'dax ot';-inkscape-font-specification:'dax ot Bold';text-align:start;text-anchor:start;fill:#ffffff;fill-opacity:1;stroke-width:0.989916"
             id="tspan1135">deposit book</tspan></text>
        <rect
           style="fill:#2666b2;fill-opacity:1;stroke:none;stroke-width:0.634836;stroke-linecap:round;stroke-linejoin:round;stroke-miterlimit:4;stroke-dasharray:none;stroke-opacity:1;paint-order:stroke fill markers"
           id="rect1178"
           width="5.5110908"
           height="5.5606441"
           x="19.950384"
           y="63.37606"
           rx="0.29653937"
           ry="0.39107686" />
        <rect
           style="fill:none;fill-opacity:1;stroke:#ffffff;stroke-width:0.220807;stroke-linecap:round;stroke-linejoin:round;stroke-miterlimit:4;stroke-dasharray:none;stroke-opacity:1;paint-order:stroke fill markers"
           id="rect1180"
           width="4.1650543"
           height="4.5471287"
           x="20.82781"
           y="63.898949"
           rx="0.2514683"
           ry="0.30091503" />
        <rect
           style="fill:#2666b2;fill-opacity:1;stroke:#ffffff;stroke-width:0.228997;stroke-linecap:round;stroke-linejoin:round;stroke-miterlimit:4;stroke-dasharray:none;stroke-opacity:1;paint-order:stroke fill markers"
           id="rect1182"
           width="0.26072121"
           height="0.76478225"
           x="20.50453"
           y="64.663246"
           rx="0.15227984"
           ry="0.12239632" />
        <rect
           style="fill:#2666b2;fill-opacity:1;stroke:#ffffff;stroke-width:0.228997;stroke-linecap:round;stroke-linejoin:round;stroke-miterlimit:4;stroke-dasharray:none;stroke-opacity:1;paint-order:stroke fill markers"
           id="rect1184"
           width="0.26072121"
           height="0.76478225"
           x="20.50453"
           y="67.022987"
           rx="0.15227984"
           ry="0.12239632" />
        <circle
           style="fill:#fcfcfe;fill-opacity:1;stroke:#ffffff;stroke-width:0.0998909;stroke-linecap:round;stroke-linejoin:round;stroke-miterlimit:4;stroke-dasharray:none;stroke-opacity:1;paint-order:stroke fill markers"
           id="circle1186"
           cx="23.802343"
           cy="66.12326"
           r="0.73001939" />
        <circle
           style="fill:none;fill-opacity:1;stroke:#2666b2;stroke-width:0.190184;stroke-linecap:round;stroke-linejoin:round;stroke-miterlimit:4;stroke-dasharray:0.190184, 0.380369;stroke-dashoffset:0;stroke-opacity:1;paint-order:stroke fill markers"
           id="circle1188"
           cx="23.80271"
           cy="66.123299"
           r="0.4485907" />
        <rect
           style="fill:#2666b2;fill-opacity:1;stroke:none;stroke-width:0.132038;stroke-linecap:round;stroke-linejoin:round;stroke-miterlimit:4;stroke-dasharray:none;stroke-opacity:1;paint-order:stroke fill markers"
           id="rect1190"
           width="0.3575047"
           height="0.97447985"
           x="-69.247421"
           y="23.904783"
           rx="0.15227984"
           ry="0.12239634"
           transform="rotate(-90)" />
        <rect
           style="fill:#2666b2;fill-opacity:1;stroke:none;stroke-width:0.132038;stroke-linecap:round;stroke-linejoin:round;stroke-miterlimit:4;stroke-dasharray:none;stroke-opacity:1;paint-order:stroke fill markers"
           id="rect1192"
           width="0.3575047"
           height="0.97447985"
           x="-69.247421"
           y="20.54962"
           rx="0.15227984"
           ry="0.12239634"
           transform="rotate(-90)" />
      </g>
      <g
         id="g2240"
         transform="matrix(0.71771387,0,0,0.71771387,-20.263902,-10.724361)"
         style="fill:none;fill-opacity:1;stroke:#2666b2;stroke-opacity:1">
        <path
           style="fill:none;fill-opacity:1;stroke:#2666b2;stroke-width:0.565;stroke-linecap:round;stroke-linejoin:round;stroke-miterlimit:4;stroke-dasharray:none;stroke-opacity:1"
           d="m 62.105749,22.898652 v 4.582027 h 4.482809"
           id="path2212"
           sodipodi:nodetypes="ccc" />
        <path
           style="fill:none;fill-opacity:1;stroke:#2666b2;stroke-width:0.365;stroke-linecap:butt;stroke-linejoin:miter;stroke-miterlimit:4;stroke-dasharray:none;stroke-opacity:1"
           d="m 62.219464,26.196812 1.346541,-1.34654 0.921316,0.921317 1.532265,-1.602422 -0.0117,-0.212243 -0.462701,10e-4"
           id="path2214"
           sodipodi:nodetypes="cccccc" />
        <path
           style="fill:none;fill-opacity:1;stroke:#2666b2;stroke-width:0.365;stroke-linecap:butt;stroke-linejoin:miter;stroke-miterlimit:4;stroke-dasharray:none;stroke-opacity:1"
           d="m 66.196763,23.774391 v 0.873922"
           id="path2216"
           sodipodi:nodetypes="cc" />
      </g>
    </g>
    <text
       xml:space="preserve"
       style="font-size:2.22496px;line-height:1.25;font-family:sans-serif;fill:#565658;fill-opacity:1;stroke-width:0.104295"
       x="61.75201"
       y="60.143723"
       id="text1071"><tspan
         sodipodi:role="line"
         id="tspan1069"
         x="61.75201"
         y="60.143723"
         style="font-style:normal;font-variant:normal;font-weight:bold;font-stretch:normal;font-family:'Dax OT';-inkscape-font-specification:'Dax OT Bold';fill:#565658;fill-opacity:1;stroke-width:0.104295">*Till Sep-2021</tspan></text>
  </g>
</svg>
